<mxfile host="app.diagrams.net" modified="2024-06-12T20:38:13.957Z" agent="Mozilla/5.0 (Windows NT 10.0; Win64; x64) AppleWebKit/537.36 (KHTML, like Gecko) Chrome/125.0.0.0 Safari/537.36" version="24.5.4" etag="0U6wokZ-jRbOo1kdjQKd" type="github">
  <diagram name="Page-1" id="NLyLZJo4TEOU-WixTTNM">
    <mxGraphModel>
      <root>
        <mxCell id="0" />
        <mxCell id="1" parent="0" />
      </root>
    </mxGraphModel>
  </diagram>
</mxfile>
